<?xml version="1.0" standalone="no"?>
<!DOCTYPE svg PUBLIC "-//W3C//DTD SVG 20010904//EN"
 "http://www.w3.org/TR/2001/REC-SVG-20010904/DTD/svg10.dtd">
<svg version="1.0" xmlns="http://www.w3.org/2000/svg"
 width="1423.000000pt" height="1423.000000pt" viewBox="0 0 1423.000000 1423.000000"
 preserveAspectRatio="xMidYMid meet">
<metadata>
Created by potrace 1.11, written by Peter Selinger 2001-2013
</metadata>
<g transform="translate(0.000000,1423.000000) scale(0.100000,-0.100000)"
fill="#000000" stroke="none">
<path d="M185 13420 l0 -740 742 0 743 0 0 740 0 740 -743 0 -742 0 0 -740z"/>
<path d="M1970 13420 l0 -740 740 0 740 0 0 740 0 740 -740 0 -740 0 0 -740z"/>
<path d="M3750 13420 l0 -740 740 0 740 0 0 740 0 740 -740 0 -740 0 0 -740z"/>
<path d="M5530 13420 l0 -740 740 0 740 0 0 740 0 740 -740 0 -740 0 0 -740z"/>
<path d="M7310 13420 l0 -740 740 0 740 0 0 740 0 740 -740 0 -740 0 0 -740z"/>
<path d="M9090 13420 l0 -740 740 0 740 0 0 740 0 740 -740 0 -740 0 0 -740z"/>
<path d="M10870 13420 l0 -740 740 0 740 0 0 740 0 740 -740 0 -740 0 0 -740z"/>
<path d="M12650 13420 l0 -740 740 0 740 0 0 740 0 740 -740 0 -740 0 0 -740z"/>
<path d="M185 11640 l0 -740 742 0 743 0 0 740 0 740 -743 0 -742 0 0 -740z"/>
<path d="M1970 11640 l0 -740 740 0 740 0 0 740 0 740 -740 0 -740 0 0 -740z"/>
<path d="M3750 11640 l0 -740 740 0 740 0 0 740 0 740 -740 0 -740 0 0 -740z"/>
<path d="M5530 11640 l0 -740 740 0 740 0 0 740 0 740 -740 0 -740 0 0 -740z"/>
<path d="M7310 11640 l0 -740 740 0 740 0 0 740 0 740 -740 0 -740 0 0 -740z"/>
<path d="M9090 11640 l0 -740 740 0 740 0 0 740 0 740 -740 0 -740 0 0 -740z"/>
<path d="M10870 11640 l0 -740 740 0 740 0 0 740 0 740 -740 0 -740 0 0 -740z"/>
<path d="M12650 11640 l0 -740 740 0 740 0 0 740 0 740 -740 0 -740 0 0 -740z"/>
<path d="M185 9860 l0 -740 742 0 743 0 0 740 0 740 -743 0 -742 0 0 -740z"/>
<path d="M1970 9860 l0 -740 740 0 740 0 0 740 0 740 -740 0 -740 0 0 -740z"/>
<path d="M3750 9860 l0 -740 740 0 740 0 0 740 0 740 -740 0 -740 0 0 -740z"/>
<path d="M5530 9860 l0 -740 740 0 740 0 0 740 0 740 -740 0 -740 0 0 -740z"/>
<path d="M7310 9860 l0 -740 740 0 740 0 0 740 0 740 -740 0 -740 0 0 -740z"/>
<path d="M9090 9860 l0 -740 740 0 740 0 0 740 0 740 -740 0 -740 0 0 -740z"/>
<path d="M10870 9860 l0 -740 740 0 740 0 0 740 0 740 -740 0 -740 0 0 -740z"/>
<path d="M12650 9860 l0 -740 740 0 740 0 0 740 0 740 -740 0 -740 0 0 -740z"/>
<path d="M189 8813 c-1 -5 -2 -338 -3 -740 l-1 -733 742 0 743 0 0 740 0 740
-740 0 c-407 0 -741 -3 -741 -7z"/>
<path d="M1970 8080 l0 -740 740 0 740 0 0 740 0 740 -740 0 -740 0 0 -740z"/>
<path d="M3750 8080 l0 -740 740 0 740 0 0 740 0 740 -740 0 -740 0 0 -740z"/>
<path d="M5530 8080 l0 -740 740 0 740 0 0 740 0 740 -740 0 -740 0 0 -740z"/>
<path d="M7310 8080 l0 -740 740 0 740 0 0 740 0 740 -740 0 -740 0 0 -740z"/>
<path d="M9090 8080 l0 -740 740 0 740 0 0 740 0 740 -740 0 -740 0 0 -740z"/>
<path d="M10870 8080 l0 -740 740 0 740 0 0 740 0 740 -740 0 -740 0 0 -740z"/>
<path d="M12650 8080 l0 -740 740 0 740 0 0 740 0 740 -740 0 -740 0 0 -740z"/>
<path d="M187 7033 c-3 -7 -2 -1424 2 -1463 1 -13 88 -15 734 -14 402 1 735 2
740 3 4 0 7 334 7 741 l0 740 -739 0 c-407 0 -741 -3 -744 -7z"/>
<path d="M1970 6297 l0 -742 740 0 740 0 0 742 0 743 -740 0 -740 0 0 -743z"/>
<path d="M3750 6297 l0 -742 740 0 740 0 0 742 0 743 -740 0 -740 0 0 -743z"/>
<path d="M5530 6297 l0 -742 740 0 740 0 0 742 0 743 -740 0 -740 0 0 -743z"/>
<path d="M7310 6297 l0 -742 740 0 740 0 0 742 0 743 -740 0 -740 0 0 -743z"/>
<path d="M9090 6297 l0 -742 740 0 740 0 0 742 0 743 -740 0 -740 0 0 -743z"/>
<path d="M10870 6297 l0 -742 740 0 740 0 0 742 0 743 -740 0 -740 0 0 -743z"/>
<path d="M12650 6297 l0 -742 740 0 740 0 0 742 0 743 -740 0 -740 0 0 -743z"/>
<path d="M188 5253 c-3 -5 -4 -339 -4 -743 l1 -735 743 0 742 -1 0 743 0 742
-739 1 c-407 0 -741 -3 -743 -7z"/>
<path d="M1970 4516 l0 -742 740 0 740 0 0 742 0 742 -740 0 -740 0 0 -742z"/>
<path d="M3750 4517 l0 -743 740 0 740 0 0 743 0 743 -740 0 -740 0 0 -743z"/>
<path d="M5530 4516 l0 -742 740 0 740 0 0 742 0 742 -740 0 -740 0 0 -742z"/>
<path d="M7310 4516 l0 -742 740 0 740 0 0 743 0 744 -740 -1 -740 -1 0 -743z"/>
<path d="M9090 4516 l0 -742 740 0 740 0 0 742 0 742 -740 0 -740 0 0 -742z"/>
<path d="M10870 4516 l0 -742 740 0 740 0 0 743 0 744 -740 -2 -740 -1 0 -742z"/>
<path d="M12650 4516 l0 -742 740 0 740 0 0 742 0 742 -740 0 -740 1 0 -743z"/>
<path d="M187 3466 c-2 -6 -3 -339 -3 -741 l1 -730 743 -1 742 -1 0 742 0 742
-739 0 c-532 0 -741 -3 -744 -11z"/>
<path d="M1974 3466 c-2 -6 -3 -339 -2 -741 l3 -730 738 -1 737 -1 0 742 0
742 -736 0 c-530 0 -737 -3 -740 -11z"/>
<path d="M3750 2735 l0 -742 738 1 737 1 3 741 2 741 -740 0 -740 0 0 -742z"/>
<path d="M5530 2735 l0 -742 740 0 740 0 0 742 0 742 -740 0 -740 0 0 -742z"/>
<path d="M7315 3472 c-3 -3 -5 -337 -5 -742 l0 -737 738 1 737 1 3 741 2 741
-735 0 c-404 0 -737 -2 -740 -5z"/>
<path d="M9095 3472 c-3 -3 -5 -337 -5 -742 l0 -737 740 0 740 0 0 742 0 742
-735 0 c-404 0 -737 -2 -740 -5z"/>
<path d="M10870 2735 l0 -742 738 1 737 1 3 741 2 741 -740 0 -740 0 0 -742z"/>
<path d="M12650 2735 l0 -742 740 0 740 0 0 742 0 742 -740 0 -740 0 0 -742z"/>
<path d="M187 1685 c-2 -5 -3 -338 -3 -740 l1 -730 743 -2 742 -2 0 742 0 743
-740 0 c-505 0 -741 -3 -743 -11z"/>
<path d="M1970 954 l0 -743 738 2 737 2 3 741 2 740 -740 0 -740 0 0 -742z"/>
<path d="M3750 954 l0 -742 740 -1 740 0 0 743 0 742 -740 0 -740 0 0 -742z"/>
<path d="M5530 954 l0 -743 740 1 740 0 0 742 0 742 -740 0 -740 0 0 -742z"/>
<path d="M7310 954 l0 -743 740 0 740 0 0 743 0 742 -740 0 -740 0 0 -742z"/>
<path d="M9090 954 l0 -743 740 0 740 0 0 743 0 742 -740 0 -740 0 0 -742z"/>
<path d="M10870 954 l0 -743 740 0 740 0 0 743 0 742 -740 0 -740 0 0 -742z"/>
<path d="M12655 1691 c-3 -2 -5 -336 -5 -742 l0 -738 740 0 740 0 0 743 0 742
-735 0 c-405 0 -738 -2 -740 -5z"/>
</g>
</svg>
